<svg id="Layer_1" data-name="Layer 1" xmlns="http://www.w3.org/2000/svg" viewBox="0 0 158.892 24"><defs><style>.cls-1{fill:none;}.cls-2{fill:#f0f8ff;}</style></defs><title>Footer_Logo</title><rect class="cls-1" x="9.096" y="-0.379" width="141.007" height="24"/><path class="cls-2" d="M12.7,4a3.988,3.988,0,0,1-.964,2.606l-.427.426L10.343,8H4A4,4,0,0,1,4,0H8.7A4,4,0,0,1,12.7,4Z"/><path class="cls-2" d="M24,4a3.991,3.991,0,0,1-1.171,2.829L12.692,16.965a4.1,4.1,0,0,0-.432.432A4,4,0,0,0,15.3,24H4a4,4,0,0,1-2.851-6.806l.045-.045L2.343,16l8.968-8.968a4.089,4.089,0,0,0,.427-.426A4,4,0,0,0,8.7,0H20A4,4,0,0,1,24,4Z"/><path class="cls-2" d="M24,20a4,4,0,1,1-4-4A4,4,0,0,1,24,20Z"/><path class="cls-2" d="M34.06,3.95A4.014,4.014,0,0,1,29.973,8,4,4,0,0,1,27.709.764,4,4,0,0,1,34.06,3.95Z"/><path class="cls-2" d="M34.06,13.524V20a4,4,0,0,1-8,0V13.524a4,4,0,1,1,8,0Z"/><path class="cls-2" d="M52.321,7.2a5.321,5.321,0,0,0-2.77-.87,4.447,4.447,0,0,0-2.444.707,4.717,4.717,0,0,0-1.7,1.951A6.365,6.365,0,0,0,44.8,11.8a6.473,6.473,0,0,0,.605,2.836,4.817,4.817,0,0,0,1.7,1.986,4.369,4.369,0,0,0,2.444.72,5.866,5.866,0,0,0,2.671-.736q.312-.162.608-.346a3.2,3.2,0,0,1,3.994.593h0a3.229,3.229,0,0,1-.54,4.914,15.3,15.3,0,0,1-1.765.97,12.676,12.676,0,0,1-11.606-.3,11.264,11.264,0,0,1-4.347-4.328A12.367,12.367,0,0,1,36.995,11.9,11.723,11.723,0,0,1,38.6,5.787,11.365,11.365,0,0,1,43.044,1.54,13.189,13.189,0,0,1,49.453,0,13.057,13.057,0,0,1,54.73,1.163a14.971,14.971,0,0,1,1.388.7,3.266,3.266,0,0,1,.9,4.943l-.028.033a3.228,3.228,0,0,1-4.287.608C52.578,7.357,52.45,7.275,52.321,7.2Z"/><path class="cls-2" d="M67.782,5.982l.027-.015a2.144,2.144,0,0,1,3.1,1.945v3.956a10.185,10.185,0,0,0-1.409-.1,4.765,4.765,0,0,0-2.983.838,2.757,2.757,0,0,0-1.083,2.311v4.869a3.687,3.687,0,0,1-3.687,3.687h0a3.688,3.688,0,0,1-3.688-3.687V8.165a2.626,2.626,0,0,1,2.626-2.626h2.124a2.626,2.626,0,0,1,2.625,2.626h0A6.768,6.768,0,0,1,67.782,5.982Z"/><path class="cls-2" d="M85.879,6.492A8.088,8.088,0,0,1,89.19,9.95a11.4,11.4,0,0,1,1.148,5.261q0,.624-.032.953H78.632a3.109,3.109,0,0,0,1.132,1.59,3.149,3.149,0,0,0,1.854.539,4.654,4.654,0,0,0,2.136-.524,2.564,2.564,0,0,1,2.991.381l.208.205a2.615,2.615,0,0,1-.541,4.173q-.393.2-.81.373a12.206,12.206,0,0,1-4.64.835,11.343,11.343,0,0,1-5.23-1.131,7.9,7.9,0,0,1-3.378-3.2,9.65,9.65,0,0,1-1.163-4.819A9.9,9.9,0,0,1,72.37,9.672a8.1,8.1,0,0,1,3.362-3.247,10.669,10.669,0,0,1,5.032-1.147A10.294,10.294,0,0,1,85.879,6.492Zm-3.493,4.426a2.035,2.035,0,0,0-3.081-.035,3.9,3.9,0,0,0-.835,1.871h4.458A2.505,2.505,0,0,0,82.386,10.918Z"/><path class="cls-2" d="M106.733,6.967a5.943,5.943,0,0,1,2.18,4.9V21.54a1.934,1.934,0,0,1-1.935,1.934H103.6a1.934,1.934,0,0,1-1.934-1.934h0A5.822,5.822,0,0,1,96.618,23.8a6.109,6.109,0,0,1-4.411-1.527,5.428,5.428,0,0,1-1.59-4.114,4.792,4.792,0,0,1,1.772-4.031,8.6,8.6,0,0,1,5.179-1.444h4.1a1.775,1.775,0,0,0-.736-1.459,3.507,3.507,0,0,0-2.05-.507,12.828,12.828,0,0,0-2.508.3c-.225.045-.452.1-.678.15a2.593,2.593,0,0,1-3.061-1.711h0A2.62,2.62,0,0,1,94.448,6.1q.963-.26,1.924-.447a22.549,22.549,0,0,1,4.277-.44A9.468,9.468,0,0,1,106.733,6.967Zm-6.166,11.787a2.974,2.974,0,0,0,1.1-1.016V16.1H99.11q-1.576,0-1.574,1.443a1.532,1.532,0,0,0,.427,1.164,1.667,1.667,0,0,0,1.211.411A2.908,2.908,0,0,0,100.567,18.754Z"/><path class="cls-2" d="M123.033,20.715a2.26,2.26,0,0,1-1.677,2.761l-.146.03a14.221,14.221,0,0,1-2.9.3,6.9,6.9,0,0,1-4.835-1.657,5.7,5.7,0,0,1-1.82-4.443V12.41a1.229,1.229,0,0,0-1.23-1.23h0a1.23,1.23,0,0,1-1.23-1.23v-2.2a1.23,1.23,0,0,1,1.23-1.23h0a1.23,1.23,0,0,0,1.23-1.23V4.447a1.229,1.229,0,0,1,.907-1.186l4.883-1.33A1.229,1.229,0,0,1,119,3.117V5.294a1.23,1.23,0,0,0,1.23,1.23h1.445a1.229,1.229,0,0,1,1.2,1.488l-.471,2.2a1.231,1.231,0,0,1-1.2.972h-.973A1.23,1.23,0,0,0,119,12.41v4.181a1.551,1.551,0,0,0,.395,1.128,1.286,1.286,0,0,0,1.049.379h.012a2.341,2.341,0,0,1,2.362,1.724Z"/><path class="cls-2" d="M138.069,6.492A8.077,8.077,0,0,1,141.38,9.95a11.4,11.4,0,0,1,1.15,5.261c0,.416-.013.734-.035.953h-11.67a3.09,3.09,0,0,0,1.131,1.59,3.141,3.141,0,0,0,1.852.539,4.647,4.647,0,0,0,2.135-.524,2.565,2.565,0,0,1,2.992.381l.208.2a2.615,2.615,0,0,1-.54,4.173q-.393.2-.812.374a12.2,12.2,0,0,1-4.64.835,11.339,11.339,0,0,1-5.229-1.131,7.891,7.891,0,0,1-3.378-3.2,9.639,9.639,0,0,1-1.163-4.819,9.884,9.884,0,0,1,1.179-4.917,8.1,8.1,0,0,1,3.362-3.247,10.675,10.675,0,0,1,5.032-1.147A10.283,10.283,0,0,1,138.069,6.492Zm-3.49,4.426a2.038,2.038,0,0,0-2.048-.678,1.453,1.453,0,0,0-.583.237,3.452,3.452,0,0,0-1.289,2.277h4.459A2.508,2.508,0,0,0,134.579,10.918Z"/><path class="cls-2" d="M150.6,10.064a1.442,1.442,0,0,0-.739.166.486.486,0,0,0-.278.424c0,.264.2.483.59.656a14.2,14.2,0,0,0,1.966.625,29.6,29.6,0,0,1,3.314,1.08,6.5,6.5,0,0,1,2.409,1.705,4.292,4.292,0,0,1,1.033,2.983,5.329,5.329,0,0,1-1,3.215,6.386,6.386,0,0,1-2.836,2.129,11.207,11.207,0,0,1-4.3.756,15.872,15.872,0,0,1-6.435-1.272,2.572,2.572,0,0,1-1.253-3.48h0a2.576,2.576,0,0,1,3.372-1.216,10.839,10.839,0,0,0,4.415,1.05,1.854,1.854,0,0,0,.819-.149c.2-.1.3-.224.3-.376,0-.241-.192-.443-.573-.606a13.765,13.765,0,0,0-1.852-.574,23.926,23.926,0,0,1-3.279-1.051,6.55,6.55,0,0,1-2.377-1.7,4.341,4.341,0,0,1-1.033-3.018,5.51,5.51,0,0,1,.985-3.263,6.371,6.371,0,0,1,2.769-2.164,10.428,10.428,0,0,1,4.146-.768,16.231,16.231,0,0,1,5.689,1.032,2.58,2.58,0,0,1,1.362,3.629l-.015.029a2.584,2.584,0,0,1-3.257,1.166A11.188,11.188,0,0,0,150.6,10.064Z"/></svg>